<svg width="253" height="228" viewBox="0 0 253 228" fill="none" xmlns="http://www.w3.org/2000/svg">
<path d="M252.5 97C252.5 150.572 152.5 225.953 75.5001 227.5C12.2635 227.5 113 232.453 105.5 183C-46.5003 90 15.5 0 138 0C201.237 0 252.5 43.4284 252.5 97Z" fill="#06FFB4" fill-opacity="0.62"/>
<path d="M211.312 81.178L209.23 76.6487C210.532 75.6527 211.451 74.6241 211.988 73.5629C212.551 72.4945 212.838 71.4329 212.851 70.378C212.883 69.2904 212.76 68.2453 212.483 67.2429C212.142 66.0091 211.621 65.0741 210.92 64.4379C210.244 63.7946 209.379 63.6185 208.325 63.9097C207.169 64.2293 206.494 64.9413 206.301 66.0459C206.127 67.1176 206.221 68.309 206.583 69.6199C205.015 70.053 203.657 70.1932 202.508 70.0403C201.352 69.8616 200.65 69.3225 200.401 68.4229C200.053 67.1634 200.417 65.9285 201.494 64.7181C202.589 63.4749 204.55 62.4627 207.378 61.6816C209.203 61.1774 210.9 61.0127 212.47 61.1877C214.04 61.3626 215.382 61.8633 216.495 62.6899C217.609 63.5166 218.372 64.6753 218.784 66.1661C219.352 68.2224 219.171 70.0707 218.241 71.7109C217.336 73.3441 215.745 75.0426 213.465 76.8066L213.664 80.5282L211.312 81.178ZM214.944 89.9682C214.07 90.2097 213.264 90.1971 212.526 89.9306C211.782 89.6383 211.249 88.9139 210.93 87.7572C210.603 86.5748 210.688 85.68 211.184 85.0726C211.68 84.4652 212.365 84.0408 213.239 83.7993C214.088 83.565 214.88 83.5811 215.618 83.8476C216.381 84.107 216.926 84.8279 217.253 86.0103C217.573 87.167 217.475 88.0654 216.96 88.7056C216.464 89.313 215.792 89.7339 214.944 89.9682Z" fill="#FFFCFC"/>
<path d="M102.062 73.8409L105.532 67.2179C107.907 67.8506 109.971 67.9992 111.723 67.6637C113.508 67.3522 115.032 66.7206 116.296 65.769C117.616 64.8093 118.745 63.7057 119.681 62.4579C120.833 60.9223 121.466 59.4464 121.578 58.0305C121.723 56.6385 121.139 55.4504 119.827 54.466C118.388 53.3856 116.924 53.2371 115.435 54.0207C114.003 54.7963 112.675 55.9999 111.45 57.6316C109.499 56.167 108.087 54.6826 107.216 53.1784C106.368 51.6421 106.364 50.3141 107.205 49.1944C108.381 47.6267 110.181 46.9272 112.605 47.0959C115.085 47.2566 118.085 48.6575 121.604 51.2985C123.876 53.0031 125.627 54.8676 126.859 56.892C128.09 58.9163 128.725 60.9685 128.765 63.0485C128.804 65.1285 128.128 67.0964 126.735 68.952C124.814 71.5114 122.454 72.9907 119.654 73.3899C116.886 73.8131 113.41 73.4801 109.226 72.3909L104.989 76.0377L102.062 73.8409ZM94.9541 86.2109C93.8664 85.3946 93.1426 84.4264 92.783 83.3062C92.4473 82.1542 92.8197 80.8583 93.9001 79.4186C95.0045 77.9469 96.1447 77.2272 97.3207 77.2595C98.4967 77.2919 99.6286 77.7162 100.716 78.5325C101.772 79.3248 102.48 80.281 102.84 81.4011C103.231 82.5452 102.875 83.8531 101.77 85.3248C100.69 86.7645 99.5338 87.4722 98.3018 87.4478C97.1258 87.4155 96.0099 87.0032 94.9541 86.2109Z" fill="#FFFCFC"/>
<path d="M117.419 143.213L119.732 138.798C121.316 139.219 122.692 139.319 123.86 139.095C125.049 138.887 126.065 138.466 126.908 137.832C127.788 137.192 128.54 136.456 129.165 135.624C129.933 134.601 130.355 133.617 130.43 132.673C130.526 131.745 130.137 130.953 129.262 130.296C128.302 129.576 127.326 129.477 126.334 130C125.379 130.517 124.494 131.319 123.678 132.407C122.377 131.43 121.435 130.441 120.854 129.438C120.289 128.414 120.287 127.529 120.847 126.782C121.632 125.737 122.832 125.271 124.448 125.383C126.101 125.49 128.101 126.424 130.447 128.185C131.961 129.321 133.129 130.564 133.95 131.914C134.771 133.263 135.194 134.631 135.221 136.018C135.247 137.405 134.796 138.717 133.867 139.954C132.587 141.66 131.013 142.646 129.147 142.912C127.301 143.195 124.984 142.973 122.195 142.246L119.37 144.678L117.419 143.213ZM112.68 151.46C111.955 150.915 111.472 150.27 111.233 149.523C111.009 148.755 111.257 147.891 111.977 146.931C112.714 145.95 113.474 145.471 114.258 145.492C115.042 145.514 115.796 145.797 116.522 146.341C117.225 146.869 117.697 147.506 117.937 148.253C118.198 149.016 117.961 149.888 117.224 150.869C116.504 151.829 115.733 152.301 114.912 152.284C114.128 152.263 113.384 151.988 112.68 151.46Z" fill="#FFFCFC"/>
<path d="M69.8803 100.63L60.3075 94.7864C61.4876 91.2924 61.9125 88.2177 61.5822 85.5622C61.291 82.8613 60.4952 80.5179 59.1949 78.5322C57.8881 76.4619 56.3468 74.6647 54.5711 73.1408C52.3856 71.2652 50.2386 70.1738 48.1303 69.8666C46.061 69.5139 44.2253 70.2709 42.6232 72.1377C40.8648 74.1866 40.499 76.3633 41.5258 78.6677C42.5462 80.8876 44.2174 82.9939 46.5395 84.9868C44.1559 87.7642 41.7956 89.7314 39.4585 90.8883C37.0759 92.0062 35.0878 91.8814 33.4943 90.5137C31.2632 88.599 30.3929 85.8359 30.8832 82.2243C31.367 78.5281 33.7581 74.1758 38.0564 69.1673C40.8308 65.9346 43.7934 63.4959 46.9442 61.8514C50.0951 60.2068 53.2291 59.4571 56.3463 59.6022C59.4635 59.7473 62.3425 60.953 64.9833 63.2194C68.6258 66.3454 70.6085 70.0236 70.9313 74.254C71.2932 78.4388 70.4537 83.6088 68.4129 89.764L73.4557 96.4638L69.8803 100.63ZM87.6982 112.482C86.3696 114.03 84.8494 115.018 83.1375 115.447C81.3802 115.836 79.477 115.152 77.4281 113.393C75.3337 111.596 74.3683 109.819 74.5321 108.062C74.6959 106.305 75.4421 104.652 76.7706 103.104C78.0601 101.601 79.5608 100.636 81.2726 100.207C83.0236 99.7334 84.9462 100.395 87.0407 102.193C89.0896 103.951 90.0354 105.751 89.8781 107.593C89.7143 109.35 88.9877 110.979 87.6982 112.482Z" fill="#FFFCFC"/>
<path d="M155.292 31.2945L154.1 27.7511C155.15 27.1119 155.918 26.4179 156.403 25.6691C156.907 24.9171 157.206 24.1482 157.299 23.3626C157.409 22.5539 157.401 21.7648 157.274 20.9952C157.118 20.048 156.804 19.3092 156.331 18.779C155.879 18.2455 155.248 18.0454 154.438 18.1788C153.55 18.3251 152.991 18.8025 152.759 19.6109C152.544 20.3964 152.519 21.2923 152.685 22.2987C151.481 22.4971 150.457 22.4936 149.612 22.2882C148.765 22.0631 148.284 21.6051 148.17 20.9145C148.011 19.9475 148.38 19.0555 149.28 18.2384C150.195 17.3984 151.738 16.7995 153.909 16.4418C155.31 16.2109 156.589 16.2231 157.746 16.4783C158.903 16.7336 159.864 17.2138 160.629 17.9188C161.393 18.6238 161.87 19.5486 162.059 20.6932C162.319 22.2719 162.037 23.6359 161.213 24.7852C160.408 25.9312 159.086 27.0714 157.246 28.2057L157.098 30.9969L155.292 31.2945ZM157.302 38.1388C156.631 38.2494 156.031 38.1759 155.502 37.9185C154.97 37.6413 154.631 37.0587 154.485 36.1707C154.335 35.263 154.469 34.6023 154.888 34.1888C155.306 33.7753 155.851 33.5132 156.522 33.4027C157.173 33.2953 157.763 33.3704 158.292 33.6278C158.84 33.882 159.19 34.463 159.339 35.3707C159.485 36.2587 159.341 36.921 158.906 37.3575C158.488 37.771 157.953 38.0315 157.302 38.1388Z" fill="#FFFCFC"/>
<path d="M159.482 124.181L152.287 117.28C153.979 114.472 154.935 111.884 155.156 109.515C155.419 107.115 155.176 104.929 154.426 102.957C153.687 100.91 152.692 99.0552 151.442 97.393C149.903 95.3473 148.247 93.9898 146.475 93.3205C144.746 92.6191 143.008 92.9257 141.261 94.2403C139.343 95.6832 138.61 97.503 139.061 99.6996C139.523 101.822 140.571 103.969 142.207 106.143C139.607 108.099 137.182 109.356 134.932 109.914C132.65 110.429 130.948 109.941 129.826 108.45C128.255 106.361 128.027 103.796 129.143 100.755C130.269 97.6382 133.176 94.3165 137.864 90.7894C140.89 88.5129 143.927 86.9616 146.977 86.1357C150.026 85.3098 152.89 85.2575 155.568 85.9788C158.247 86.7001 160.516 88.2967 162.376 90.7686C164.941 94.1781 165.959 97.7499 165.432 101.484C164.947 105.186 163.23 109.514 160.283 114.468L163.381 121.247L159.482 124.181ZM172.686 137.873C171.237 138.963 169.729 139.531 168.161 139.576C166.561 139.578 165.04 138.621 163.597 136.703C162.122 134.742 161.623 133.015 162.101 131.521C162.579 130.027 163.542 128.735 164.991 127.645C166.397 126.587 167.885 126.035 169.453 125.99C171.063 125.913 172.606 126.855 174.081 128.815C175.524 130.733 176.001 132.476 175.513 134.045C175.035 135.539 174.093 136.815 172.686 137.873Z" fill="#FFFCFC"/>
</svg>
