<svg width="267" height="74" viewBox="0 0 267 74" fill="none" xmlns="http://www.w3.org/2000/svg">
<g id="Group 194">
<rect id="Rectangle 260" width="267" height="74" rx="6" fill="white"/>
<path id="Jesus_MH" d="M23.35 20.6V18.55H38V20.6L33.4 21.15C33.3667 23.25 33.3333 25.3833 33.3 27.55C33.3 29.6833 33.3 31.8333 33.3 34V41.8C33.3 44.3333 33.25 46.45 33.15 48.15C33.0833 49.85 32.9333 51.2667 32.7 52.4C32.4667 53.5333 32.1333 54.4833 31.7 55.25C31.3 56.0167 30.75 56.75 30.05 57.45C29.2167 58.2833 28.2 58.9333 27 59.4C25.8333 59.9 24.5667 60.15 23.2 60.15C22.2667 60.15 21.3833 59.9667 20.55 59.6C19.6833 59.2667 19.1167 58.6333 18.85 57.7C19.0167 56.7667 19.3833 56.1167 19.95 55.75C20.4833 55.3833 21.15 55.2 21.95 55.2C23.0833 55.2 24.3333 55.7167 25.7 56.75L26.95 57.75C27.6833 57.05 28.1833 56.2167 28.45 55.25C28.75 54.2833 28.9 53.0833 28.9 51.65C28.9 51.05 28.8833 50.3167 28.85 49.45C28.85 48.5833 28.8333 47.45 28.8 46.05C28.7667 44.65 28.7333 42.8667 28.7 40.7C28.6667 38.5333 28.6167 35.85 28.55 32.65C28.5167 29.45 28.4833 25.6167 28.45 21.15L23.35 20.6ZM52.1746 29.9C51.2413 29.9 50.2913 30.1667 49.3246 30.7C48.3913 31.2333 47.5746 32.0833 46.8746 33.25C46.2079 34.4167 45.7746 35.9667 45.5746 37.9H54.6746C55.8746 37.9 56.6579 37.65 57.0246 37.15C57.4246 36.65 57.6246 36.0333 57.6246 35.3C57.6246 34.3333 57.3746 33.45 56.8746 32.65C56.4079 31.8167 55.7579 31.15 54.9246 30.65C54.1246 30.15 53.2079 29.9 52.1746 29.9ZM52.1246 52.65C48.7579 52.65 46.0579 51.5667 44.0246 49.4C41.9913 47.2 40.9746 44.1833 40.9746 40.35C40.9746 37.7833 41.4913 35.55 42.5246 33.65C43.5913 31.75 44.9913 30.2667 46.7246 29.2C48.4913 28.1333 50.4079 27.6 52.4746 27.6C54.2079 27.6 55.7746 27.9833 57.1746 28.75C58.5746 29.5167 59.6913 30.6167 60.5246 32.05C61.3579 33.45 61.7746 35.1667 61.7746 37.2C61.7746 37.7667 61.7413 38.3 61.6746 38.8C61.6079 39.2667 61.5246 39.6667 61.4246 40H45.4746C45.5413 43.0667 46.3079 45.4 47.7746 47C49.2413 48.6 51.1746 49.4 53.5746 49.4C55.1746 49.4 56.5079 49.0833 57.5746 48.45C58.6413 47.7833 59.6246 46.9333 60.5246 45.9L61.7246 46.85C60.7913 48.6167 59.5246 50.0333 57.9246 51.1C56.3246 52.1333 54.3913 52.65 52.1246 52.65ZM74.2129 52.65C72.8129 52.65 71.5296 52.4833 70.3629 52.15C69.1962 51.85 67.9962 51.3833 66.7629 50.75L66.5629 45.25H69.3129L70.2629 49.6C71.4296 50.1333 72.7796 50.4 74.3129 50.4C76.2129 50.4 77.6129 50.05 78.5129 49.35C79.4462 48.65 79.9129 47.7333 79.9129 46.6C79.9129 45.5333 79.5296 44.6833 78.7629 44.05C77.9962 43.3833 76.8296 42.7833 75.2629 42.25L72.9629 41.4C71.1296 40.7333 69.6629 39.8667 68.5629 38.8C67.4629 37.7333 66.9129 36.35 66.9129 34.65C66.9129 33.4167 67.2462 32.2667 67.9129 31.2C68.5796 30.1333 69.5629 29.2667 70.8629 28.6C72.1629 27.9333 73.7462 27.6 75.6129 27.6C76.9796 27.6 78.2129 27.7833 79.3129 28.15C80.4462 28.4833 81.5462 28.9833 82.6129 29.65L82.4129 34.75H79.8129L79.0129 30.75C77.8796 30.1833 76.7296 29.9 75.5629 29.9C74.0296 29.9 72.8629 30.2167 72.0629 30.85C71.2962 31.45 70.9129 32.2667 70.9129 33.3C70.9129 34.4 71.2462 35.2333 71.9129 35.8C72.6129 36.3667 73.8129 36.9667 75.5129 37.6L77.0629 38.15C79.5629 39.0833 81.3296 40.15 82.3629 41.35C83.4296 42.55 83.9629 43.9333 83.9629 45.5C83.9629 46.7667 83.5962 47.95 82.8629 49.05C82.1296 50.1167 81.0462 50.9833 79.6129 51.65C78.1796 52.3167 76.3796 52.65 74.2129 52.65ZM97.0426 52.65C95.0092 52.65 93.4092 51.9833 92.2426 50.65C91.0759 49.2833 90.5092 46.95 90.5426 43.65L90.6926 31.2L87.1426 30.45V28.65L94.4926 27.95L94.9926 28.45L94.7426 35.45V43.2C94.7426 45.3667 95.0759 46.9 95.7426 47.8C96.4092 48.6667 97.4092 49.1 98.7426 49.1C101.076 49.1 103.409 48.0167 105.743 45.85L105.893 31.15L102.343 30.45V28.65L109.593 27.95L110.093 28.45L109.943 35.45V49.5L113.343 50.2V52L106.393 52.4L105.893 47.95C104.559 49.5833 103.126 50.7833 101.593 51.55C100.093 52.2833 98.5759 52.65 97.0426 52.65ZM125.043 52.65C123.643 52.65 122.36 52.4833 121.193 52.15C120.026 51.85 118.826 51.3833 117.593 50.75L117.393 45.25H120.143L121.093 49.6C122.26 50.1333 123.61 50.4 125.143 50.4C127.043 50.4 128.443 50.05 129.343 49.35C130.276 48.65 130.743 47.7333 130.743 46.6C130.743 45.5333 130.36 44.6833 129.593 44.05C128.826 43.3833 127.66 42.7833 126.093 42.25L123.793 41.4C121.96 40.7333 120.493 39.8667 119.393 38.8C118.293 37.7333 117.743 36.35 117.743 34.65C117.743 33.4167 118.076 32.2667 118.743 31.2C119.41 30.1333 120.393 29.2667 121.693 28.6C122.993 27.9333 124.576 27.6 126.443 27.6C127.81 27.6 129.043 27.7833 130.143 28.15C131.276 28.4833 132.376 28.9833 133.443 29.65L133.243 34.75H130.643L129.843 30.75C128.71 30.1833 127.56 29.9 126.393 29.9C124.86 29.9 123.693 30.2167 122.893 30.85C122.126 31.45 121.743 32.2667 121.743 33.3C121.743 34.4 122.076 35.2333 122.743 35.8C123.443 36.3667 124.643 36.9667 126.343 37.6L127.893 38.15C130.393 39.0833 132.16 40.15 133.193 41.35C134.26 42.55 134.793 43.9333 134.793 45.5C134.793 46.7667 134.426 47.95 133.693 49.05C132.96 50.1167 131.876 50.9833 130.443 51.65C129.01 52.3167 127.21 52.65 125.043 52.65ZM136.721 55.3V52H158.321V55.3H136.721ZM162.257 52V49.95L166.757 49.3V21.15L162.257 20.6V18.55H171.507L182.707 46.05L193.307 18.55H203.157V20.6L198.557 21.15C198.523 23.25 198.49 25.3833 198.457 27.55C198.457 29.7167 198.457 31.8833 198.457 34.05V36.5C198.457 38.6333 198.457 40.7833 198.457 42.95C198.49 45.0833 198.523 47.2333 198.557 49.4L203.157 49.95V52H189.557V49.95L193.757 49.4C193.823 47.3 193.857 45.1667 193.857 43C193.857 40.8333 193.857 38.6833 193.857 36.55V24.1L183.007 52H180.507L169.057 24.1L169.357 33.55V49.3L173.457 49.95V52H162.257ZM228.524 20.6V18.55H242.624V20.6L238.024 21.15C237.99 23.25 237.957 25.3833 237.924 27.55C237.924 29.7167 237.924 31.8833 237.924 34.05V36.5C237.924 38.6333 237.924 40.7833 237.924 42.95C237.957 45.0833 237.99 47.2333 238.024 49.4L242.624 49.95V52H228.524V49.95L233.124 49.4C233.19 47.2667 233.224 45.1 233.224 42.9C233.224 40.6667 233.224 38.3833 233.224 36.05H217.074C217.074 38.5833 217.074 40.9333 217.074 43.1C217.107 45.2667 217.14 47.3833 217.174 49.45L221.724 49.95V52H207.624V49.95L212.224 49.4C212.29 47.3 212.324 45.1667 212.324 43C212.324 40.8333 212.324 38.6667 212.324 36.5V34.05C212.324 31.8833 212.324 29.7333 212.324 27.6C212.324 25.4333 212.29 23.2833 212.224 21.15L207.624 20.6V18.55H221.724V20.6L217.174 21.1C217.14 23.2333 217.107 25.3667 217.074 27.5C217.074 29.6333 217.074 31.7 217.074 33.7H233.224C233.224 31.5 233.224 29.3667 233.224 27.3C233.224 25.2333 233.19 23.1833 233.124 21.15L228.524 20.6Z" fill="#3C3743"/>
</g>
</svg>
