<svg width="241" height="98" viewBox="0 0 241 98" fill="none" xmlns="http://www.w3.org/2000/svg">
<path d="M22.9766 35.7939C22.4492 36.0088 21.9512 36.1846 21.4824 36.3213C21.0137 36.4385 20.4668 36.5557 19.8418 36.6729C18.9238 36.8486 18.2402 37.0537 17.791 37.2881C17.3418 37.5029 16.9805 37.9619 16.707 38.665C16.4531 39.3486 16.3262 40.4131 16.3262 41.8584V67.4639C16.3262 70.0029 16.0234 72.3662 15.418 74.5537C14.8125 76.7607 13.748 78.5869 12.2246 80.0322C10.7207 81.4775 8.69922 82.2002 6.16016 82.2002C5.30078 82.2002 4.42188 82.083 3.52344 81.8486C2.625 81.6143 1.86328 81.2139 1.23828 80.6475C0.613281 80.1006 0.300781 79.3877 0.300781 78.5088C0.300781 77.7666 0.554688 77.1611 1.0625 76.6924C1.55078 76.2432 2.16602 76.0186 2.9082 76.0186C3.41602 76.0186 3.83594 76.1162 4.16797 76.3115C4.51953 76.5068 4.79297 76.7314 4.98828 76.9854C5.20312 77.2588 5.44727 77.6299 5.7207 78.0986C6.01367 78.665 6.29688 79.085 6.57031 79.3584C6.86328 79.6514 7.24414 79.7979 7.71289 79.7979C9.25586 79.7979 10.0273 77.2881 10.0273 72.2686V42.1221C10.0273 40.5986 9.89062 39.4756 9.61719 38.7529C9.36328 38.0303 8.99219 37.5518 8.50391 37.3174C8.03516 37.0635 7.2832 36.8193 6.24805 36.585C5.03711 36.3311 4.07031 36.0771 3.34766 35.8232L3.43555 34.2998H22.9766V35.7939ZM30.2715 57.0342C30.252 57.2295 30.2422 57.5127 30.2422 57.8838C30.2422 60.3447 30.6816 62.4053 31.5605 64.0654C32.459 65.7061 33.6504 66.9268 35.1348 67.7275C36.6387 68.5088 38.3184 68.8994 40.1738 68.8994C42.6348 68.8994 45.0078 68.1963 47.293 66.79L48.1426 67.6104C47.6738 68.7432 46.8828 69.7197 45.7695 70.54C44.6758 71.3604 43.4258 71.9854 42.0195 72.415C40.6328 72.8252 39.2852 73.0303 37.9766 73.0303C35.5156 73.0303 33.2988 72.4541 31.3262 71.3018C29.373 70.1494 27.8398 68.5381 26.7266 66.4678C25.6328 64.3975 25.0859 62.0244 25.0859 59.3486C25.0859 56.6338 25.6816 54.2119 26.873 52.083C28.0645 49.9346 29.6465 48.2744 31.6191 47.1025C33.6113 45.9111 35.7402 45.3154 38.0059 45.3154C39.8613 45.3154 41.5312 45.6963 43.0156 46.458C44.5195 47.2002 45.7402 48.2549 46.6777 49.6221C47.6152 50.9697 48.2109 52.5225 48.4648 54.2803C48.6797 55.1787 48.7871 56.0088 48.7871 56.7705V57.0342H30.2715ZM40.8184 55.1592C41.6777 55.1201 42.4004 54.9639 42.9863 54.6904C42.8496 52.3662 42.3027 50.5498 41.3457 49.2412C40.4082 47.9326 39.0703 47.2783 37.332 47.2783C36.0625 47.2783 34.9297 47.6592 33.9336 48.4209C32.957 49.1826 32.166 50.1982 31.5605 51.4678C30.9551 52.7178 30.5645 54.0947 30.3887 55.5986L40.8184 55.1592ZM71.1699 53.958C70.8965 53.9775 70.4375 53.9873 69.793 53.9873C69.2266 52.0146 68.3672 50.4033 67.2148 49.1533C66.082 47.9033 64.627 47.2783 62.8496 47.2783C61.6191 47.2783 60.6426 47.5811 59.9199 48.1865C59.2168 48.792 58.8652 49.6709 58.8652 50.8232C58.8652 51.624 59.1582 52.3662 59.7441 53.0498C60.3301 53.7334 61.043 54.3389 61.8828 54.8662C62.7422 55.374 63.8652 55.9795 65.252 56.6826C65.584 56.8389 66.082 57.0928 66.7461 57.4443C68.9336 58.6162 70.5254 59.8174 71.5215 61.0479C72.5371 62.2588 73.0449 63.7432 73.0449 65.501C73.0449 67.1221 72.6445 68.499 71.8438 69.6318C71.043 70.7451 69.9395 71.5947 68.5332 72.1807C67.127 72.7471 65.5156 73.0303 63.6992 73.0303C62.0977 73.0303 60.4766 72.835 58.8359 72.4443C57.1953 72.0732 55.8477 71.5654 54.793 70.9209V63.7725C55.5547 63.6748 56.0723 63.626 56.3457 63.626C56.7949 65.7939 57.5859 67.5615 58.7188 68.9287C59.8711 70.2959 61.4434 70.9795 63.4355 70.9795C64.8613 70.9795 66.043 70.6279 66.9805 69.9248C67.9375 69.2021 68.416 68.2549 68.416 67.083C68.416 66.3408 68.2012 65.6865 67.7715 65.1201C67.3418 64.5537 66.7852 64.0557 66.1016 63.626C65.418 63.1963 64.3926 62.6201 63.0254 61.8975C61.1895 60.9209 59.793 60.1299 58.8359 59.5244C57.3516 58.6064 56.2285 57.5811 55.4668 56.4482C54.7246 55.3154 54.3535 53.9678 54.3535 52.4053C54.3535 50.9014 54.7344 49.6221 55.4961 48.5674C56.2578 47.4932 57.293 46.6826 58.6016 46.1357C59.9102 45.5889 61.3848 45.3154 63.0254 45.3154C64.5293 45.3154 65.9551 45.501 67.3027 45.8721C68.6699 46.2432 69.9004 46.7705 70.9941 47.4541L71.1699 53.958ZM90.3008 73.0303C87.9375 73.0303 86.1113 72.4443 84.8223 71.2725C83.5527 70.0811 82.6934 68.5381 82.2441 66.6436C81.7949 64.749 81.5703 62.4932 81.5703 59.876V51.1455C81.3164 50.6963 80.8379 50.2959 80.1348 49.9443C79.4512 49.5732 78.7383 49.2705 77.9961 49.0361C77.2734 48.7822 76.9121 48.665 76.9121 48.6846L76.9707 47.6592L85.2031 45.667L87.0195 45.5498V59.5537C87.0195 62.0537 87.1758 64.0264 87.4883 65.4717C87.8008 66.8975 88.3281 67.9424 89.0703 68.6064C89.8125 69.251 90.8477 69.5732 92.1758 69.5732C94.8906 69.5732 97.4492 68.3818 99.8516 65.999V51.1455C99.5977 50.6963 99.1191 50.2959 98.416 49.9443C97.7324 49.5732 97.0195 49.2705 96.2773 49.0361C95.5547 48.7822 95.1934 48.665 95.1934 48.6846L95.252 47.6592L103.484 45.667L105.301 45.5498V66.5557C105.301 67.376 105.506 68.0107 105.916 68.46C106.326 68.8896 106.834 69.2021 107.439 69.3975C108.045 69.5928 108.875 69.7783 109.93 69.9541C109.93 70.2471 109.91 70.5498 109.871 70.8623C109.852 71.1748 109.842 71.3896 109.842 71.5068L100.232 72.8838L99.998 68.1963C97.1074 71.4189 93.875 73.0303 90.3008 73.0303ZM131.111 53.958C130.838 53.9775 130.379 53.9873 129.734 53.9873C129.168 52.0146 128.309 50.4033 127.156 49.1533C126.023 47.9033 124.568 47.2783 122.791 47.2783C121.561 47.2783 120.584 47.5811 119.861 48.1865C119.158 48.792 118.807 49.6709 118.807 50.8232C118.807 51.624 119.1 52.3662 119.686 53.0498C120.271 53.7334 120.984 54.3389 121.824 54.8662C122.684 55.374 123.807 55.9795 125.193 56.6826C125.525 56.8389 126.023 57.0928 126.688 57.4443C128.875 58.6162 130.467 59.8174 131.463 61.0479C132.479 62.2588 132.986 63.7432 132.986 65.501C132.986 67.1221 132.586 68.499 131.785 69.6318C130.984 70.7451 129.881 71.5947 128.475 72.1807C127.068 72.7471 125.457 73.0303 123.641 73.0303C122.039 73.0303 120.418 72.835 118.777 72.4443C117.137 72.0732 115.789 71.5654 114.734 70.9209V63.7725C115.496 63.6748 116.014 63.626 116.287 63.626C116.736 65.7939 117.527 67.5615 118.66 68.9287C119.812 70.2959 121.385 70.9795 123.377 70.9795C124.803 70.9795 125.984 70.6279 126.922 69.9248C127.879 69.2021 128.357 68.2549 128.357 67.083C128.357 66.3408 128.143 65.6865 127.713 65.1201C127.283 64.5537 126.727 64.0557 126.043 63.626C125.359 63.1963 124.334 62.6201 122.967 61.8975C121.131 60.9209 119.734 60.1299 118.777 59.5244C117.293 58.6064 116.17 57.5811 115.408 56.4482C114.666 55.3154 114.295 53.9678 114.295 52.4053C114.295 50.9014 114.676 49.6221 115.438 48.5674C116.199 47.4932 117.234 46.6826 118.543 46.1357C119.852 45.5889 121.326 45.3154 122.967 45.3154C124.471 45.3154 125.896 45.501 127.244 45.8721C128.611 46.2432 129.842 46.7705 130.936 47.4541L131.111 53.958Z" fill="white"/>
<path d="M156.295 82.9444C156.406 73.2888 157.978 63.6786 158.947 54.0649C159.976 43.8541 159.52 33.6315 161.219 23.4518C161.509 21.715 160.643 9.39549 162.061 8.95287C165.997 7.72465 175.145 27.0668 180.116 28.9282C184.842 30.6981 192.659 13.1407 194.004 10.2136C195.158 7.69977 197.202 -0.16613 197.202 2.57021C197.202 6.19493 197.202 9.81965 197.202 13.4444C197.202 29.2374 198.605 45.0134 198.717 60.8021C198.738 63.7545 196.658 80.5621 200.232 82.2353" stroke="#FFFCFC" stroke-width="4" stroke-linecap="round" stroke-linejoin="round"/>
<path d="M213.155 80.3333C212.043 61.845 213.356 43.3281 211.217 24.9922C210.525 19.0569 210.571 13.2113 210.571 7.22217" stroke="#FFFCFC" stroke-width="4" stroke-linecap="round" stroke-linejoin="round"/>
<path d="M236.416 85.5556C234.154 65.0936 230.514 43.8663 230.072 23.1184C229.977 18.6577 229.367 14.3431 229.367 9.85565C229.367 7.44535 229.94 3.66408 228.662 2" stroke="white" stroke-width="4" stroke-linecap="round" stroke-linejoin="round"/>
<path d="M210.57 41.1665C218.601 44.5378 224.85 45.5184 233.127 45.5184C234.268 45.5184 241.039 46.3887 238.39 46.3887" stroke="#FFFCFC" stroke-width="4" stroke-linecap="round" stroke-linejoin="round"/>
</svg>
