<svg width="384" height="428" viewBox="0 0 384 428" fill="none" xmlns="http://www.w3.org/2000/svg">
<rect y="113.03" width="252" height="352" rx="20" transform="rotate(-26.6495 0 113.03)" fill="#F8F3F3"/>
<rect x="31" y="142.884" width="222.647" height="27" transform="rotate(-27.1304 31 142.884)" fill="#FFD464"/>
<ellipse cx="96.5" cy="214" rx="17.5" ry="16" fill="#FFD464"/>
<ellipse cx="118.5" cy="260" rx="17.5" ry="16" fill="#FFD464"/>
<ellipse cx="144.5" cy="305" rx="17.5" ry="16" fill="#FFD464"/>
<ellipse cx="167.5" cy="351" rx="17.5" ry="16" fill="#FFD464"/>
<rect x="114" y="190.516" width="169.407" height="23" transform="rotate(-28.4667 114 190.516)" fill="#EDECEC"/>
<rect x="139" y="239.747" width="169.407" height="23" transform="rotate(-28.4667 139 239.747)" fill="#EDECEC"/>
<rect x="162" y="281.747" width="169.407" height="23" transform="rotate(-28.4667 162 281.747)" fill="#EDECEC"/>
<rect x="185" y="326.747" width="169.407" height="23" transform="rotate(-28.4667 185 326.747)" fill="#EDECEC"/>
<rect x="175.25" y="333" width="4" height="28" transform="rotate(19.7599 175.25 333)" fill="#3C3838"/>
<path d="M157 353.329L159.253 350.024L170.398 357.619L168.146 360.924L157 353.329Z" fill="#3C3838"/>
<rect x="150.25" y="285" width="4" height="28" transform="rotate(19.7599 150.25 285)" fill="#3C3838"/>
<path d="M132 305.329L134.253 302.024L145.398 309.619L143.146 312.924L132 305.329Z" fill="#3C3838"/>
<rect x="126.25" y="240" width="4" height="28" transform="rotate(19.7599 126.25 240)" fill="#3C3838"/>
<path d="M108 260.329L110.253 257.024L121.398 264.619L119.146 267.924L108 260.329Z" fill="#3C3838"/>
<rect x="104.25" y="193" width="4" height="28" transform="rotate(19.7599 104.25 193)" fill="#3C3838"/>
<path d="M86.0001 213.329L88.2525 210.024L99.3984 217.619L97.146 220.924L86.0001 213.329Z" fill="#3C3838"/>
</svg>
