<svg width="474" height="118" viewBox="0 0 474 118" fill="none" xmlns="http://www.w3.org/2000/svg">
<g id="Group 217">
<g id="Group 216">
<g id="Group 197">
<rect id="Rectangle 260" width="474" height="118" rx="6" fill="white"/>
<path id="Jesus_MH" d="M33.15 28.73V23.87H63.12V28.73L56.19 29.45C56.13 32.93 56.1 36.47 56.1 40.07C56.1 43.67 56.1 47.3 56.1 50.96V60.32C56.1 68.48 55.56 75.08 54.48 80.12C53.46 85.16 51.42 89.21 48.36 92.27C44.1 96.47 39.03 98.57 33.15 98.57C30.69 98.57 28.53 98.09 26.67 97.13C24.81 96.23 23.37 94.82 22.35 92.9C22.41 90.8 23.13 89.15 24.51 87.95C25.83 86.81 27.48 86.24 29.46 86.24C31.02 86.24 32.43 86.63 33.69 87.41C34.95 88.25 36.27 89.51 37.65 91.19L39.54 93.44C40.26 92.06 40.77 90.23 41.07 87.95C41.37 85.73 41.52 82.97 41.52 79.67C41.52 76.85 41.49 73.28 41.43 68.96C41.37 64.58 41.28 59.18 41.16 52.76C41.04 46.28 40.92 38.54 40.8 29.54L33.15 28.73ZM87.8869 42.77C86.2069 42.77 84.6469 43.82 83.2069 45.92C81.8269 47.96 81.0469 51.74 80.8669 57.26H88.5169C90.6769 57.26 92.1169 56.84 92.8369 56C93.6169 55.1 94.0069 53.63 94.0069 51.59C94.0069 48.59 93.4069 46.37 92.2069 44.93C91.0069 43.49 89.5669 42.77 87.8869 42.77ZM88.0669 84.35C83.6869 84.35 79.8169 83.45 76.4569 81.65C73.0969 79.79 70.4569 77.15 68.5369 73.73C66.6169 70.25 65.6569 66.11 65.6569 61.31C65.6569 56.27 66.7669 52.04 68.9869 48.62C71.2669 45.14 74.1769 42.53 77.7169 40.79C81.2569 38.99 84.9469 38.09 88.7869 38.09C92.7469 38.09 96.1069 38.93 98.8669 40.61C101.687 42.29 103.817 44.57 105.257 47.45C106.697 50.27 107.417 53.51 107.417 57.17C107.417 58.91 107.237 60.5 106.877 61.94H80.8669C81.1669 66.68 82.4569 70.19 84.7369 72.47C87.0769 74.69 89.8069 75.8 92.9269 75.8C95.3869 75.8 97.4869 75.35 99.2269 74.45C100.967 73.49 102.497 72.32 103.817 70.94L106.967 73.82C105.107 77.36 102.587 80 99.4069 81.74C96.2269 83.48 92.4469 84.35 88.0669 84.35ZM128.34 84.35C122.64 84.35 117.42 82.97 112.68 80.21L112.95 69.23H120.15L121.68 78.14C122.76 78.56 123.84 78.89 124.92 79.13C126 79.31 127.17 79.4 128.43 79.4C131.01 79.4 132.99 78.98 134.37 78.14C135.75 77.24 136.44 75.89 136.44 74.09C136.44 72.71 135.93 71.51 134.91 70.49C133.89 69.47 131.88 68.54 128.88 67.7L124.02 66.26C120.54 65.24 117.84 63.59 115.92 61.31C114.06 59.03 113.13 56.21 113.13 52.85C113.13 48.71 114.75 45.23 117.99 42.41C121.23 39.53 125.88 38.09 131.94 38.09C134.58 38.09 137.01 38.42 139.23 39.08C141.51 39.68 143.82 40.58 146.16 41.78L145.53 51.59H138.33L136.53 43.85C135.27 43.37 133.62 43.13 131.58 43.13C129.54 43.13 127.89 43.55 126.63 44.39C125.43 45.23 124.83 46.49 124.83 48.17C124.83 49.37 125.31 50.45 126.27 51.41C127.23 52.31 129.27 53.24 132.39 54.2L136.8 55.46C141.06 56.72 144.12 58.52 145.98 60.86C147.84 63.2 148.77 66.05 148.77 69.41C148.77 74.15 146.94 77.84 143.28 80.48C139.68 83.06 134.7 84.35 128.34 84.35ZM184.702 83.99L184.162 76.43C182.242 78.95 180.052 80.9 177.592 82.28C175.132 83.66 172.462 84.35 169.582 84.35C165.742 84.35 162.652 83.15 160.312 80.75C157.972 78.29 156.832 74.09 156.892 68.15L157.252 46.19L152.032 45.02V41.24L170.392 38.63L171.832 39.62L171.382 52.31V68.24C171.382 71 171.802 72.92 172.642 74C173.542 75.08 174.742 75.62 176.242 75.62C177.502 75.62 178.792 75.23 180.112 74.45C181.492 73.67 182.782 72.71 183.982 71.57L184.342 46.1L179.392 45.02V41.51L197.302 38.63L198.742 39.62L198.472 52.31V77.87L203.152 78.86V83.09L184.702 83.99ZM223.965 84.35C218.265 84.35 213.045 82.97 208.305 80.21L208.575 69.23H215.775L217.305 78.14C218.385 78.56 219.465 78.89 220.545 79.13C221.625 79.31 222.795 79.4 224.055 79.4C226.635 79.4 228.615 78.98 229.995 78.14C231.375 77.24 232.065 75.89 232.065 74.09C232.065 72.71 231.555 71.51 230.535 70.49C229.515 69.47 227.505 68.54 224.505 67.7L219.645 66.26C216.165 65.24 213.465 63.59 211.545 61.31C209.685 59.03 208.755 56.21 208.755 52.85C208.755 48.71 210.375 45.23 213.615 42.41C216.855 39.53 221.505 38.09 227.565 38.09C230.205 38.09 232.635 38.42 234.855 39.08C237.135 39.68 239.445 40.58 241.785 41.78L241.155 51.59H233.955L232.155 43.85C230.895 43.37 229.245 43.13 227.205 43.13C225.165 43.13 223.515 43.55 222.255 44.39C221.055 45.23 220.455 46.49 220.455 48.17C220.455 49.37 220.935 50.45 221.895 51.41C222.855 52.31 224.895 53.24 228.015 54.2L232.425 55.46C236.685 56.72 239.745 58.52 241.605 60.86C243.465 63.2 244.395 66.05 244.395 69.41C244.395 74.15 242.565 77.84 238.905 80.48C235.305 83.06 230.325 84.35 223.965 84.35ZM245.944 91.1V83H287.254V91.1H245.944ZM292.479 83V78.14L301.209 77.06V29.63L293.289 28.73V23.87H317.049L331.719 63.47L345.489 23.87H368.259V28.73L361.869 29.45C361.809 33.11 361.749 36.83 361.689 40.61C361.689 44.33 361.689 48.05 361.689 51.77V55.1C361.689 58.82 361.689 62.54 361.689 66.26C361.749 69.98 361.809 73.7 361.869 77.42L368.529 78.14V83H339.819V78.14L346.389 77.33C346.509 73.67 346.539 70.1 346.479 66.62C346.479 63.14 346.509 59.93 346.569 56.99L346.749 37.1L330.729 83H323.799L306.609 37.01L307.059 55.01V76.97L314.439 78.14V83H292.479ZM409.073 28.73V23.87H437.513V28.73L430.853 29.45C430.793 33.11 430.733 36.8 430.673 40.52C430.673 44.24 430.673 47.99 430.673 51.77V55.1C430.673 58.76 430.673 62.48 430.673 66.26C430.733 69.98 430.793 73.7 430.853 77.42L437.513 78.14V83H409.073V78.14L415.373 77.51C415.493 73.79 415.553 70.07 415.553 66.35C415.553 62.63 415.553 58.94 415.553 55.28H396.383C396.383 59.3 396.383 63.14 396.383 66.8C396.443 70.4 396.503 73.97 396.563 77.51L402.863 78.14V83H374.513V78.14L381.083 77.42C381.203 73.76 381.263 70.07 381.263 66.35C381.263 62.63 381.263 58.88 381.263 55.1V51.77C381.263 48.05 381.263 44.33 381.263 40.61C381.263 36.89 381.203 33.17 381.083 29.45L374.513 28.73V23.87H402.863V28.73L396.563 29.36C396.503 33.02 396.443 36.65 396.383 40.25C396.383 43.85 396.383 47.09 396.383 49.97H415.553C415.553 46.55 415.553 43.13 415.553 39.71C415.553 36.23 415.493 32.78 415.373 29.36L409.073 28.73Z" fill="#3C3743"/>
</g>
</g>
</g>
</svg>
