<svg width="126" height="63" viewBox="0 0 126 63" fill="none" xmlns="http://www.w3.org/2000/svg">
<path d="M15.1991 15.1147C13.7921 7.23552 19.85 0 27.8538 0H99.5C113.859 0 125.5 11.6406 125.5 26V37C125.5 51.3594 113.859 63 99.5 63H28.6924C19.7496 63 12.5 55.7504 12.5 46.8076V34.6839C12.5 33.7137 11.7952 32.8872 10.8372 32.734L5.03498 31.8056C4.02499 31.644 3.99703 30.2006 5 30V30V30C11.8668 28.9013 16.4971 22.3839 15.2747 15.5381L15.1991 15.1147Z" fill="#06FFB4" fill-opacity="0.62"/>
<path d="M59.46 37H55.62L49.4 26.2H49.32C49.3467 26.88 49.3733 27.56 49.4 28.24C49.44 28.92 49.4733 29.6 49.5 30.28V37H46.8V22.72H50.62L56.82 33.42H56.88C56.8667 32.7533 56.8467 32.0933 56.82 31.44C56.7933 30.7867 56.7667 30.1333 56.74 29.48V22.72H59.46V37ZM72.7495 31.52C72.7495 33.3333 72.2695 34.7333 71.3095 35.72C70.3629 36.7067 69.0695 37.2 67.4295 37.2C66.4162 37.2 65.5095 36.98 64.7095 36.54C63.9229 36.1 63.3029 35.46 62.8495 34.62C62.3962 33.7667 62.1695 32.7333 62.1695 31.52C62.1695 29.7067 62.6429 28.3133 63.5895 27.34C64.5362 26.3667 65.8362 25.88 67.4895 25.88C68.5162 25.88 69.4229 26.1 70.2095 26.54C70.9962 26.98 71.6162 27.62 72.0695 28.46C72.5229 29.2867 72.7495 30.3067 72.7495 31.52ZM65.2095 31.52C65.2095 32.6 65.3829 33.42 65.7295 33.98C66.0895 34.5267 66.6695 34.8 67.4695 34.8C68.2562 34.8 68.8229 34.5267 69.1695 33.98C69.5295 33.42 69.7095 32.6 69.7095 31.52C69.7095 30.44 69.5295 29.6333 69.1695 29.1C68.8229 28.5533 68.2495 28.28 67.4495 28.28C66.6629 28.28 66.0895 28.5533 65.7295 29.1C65.3829 29.6333 65.2095 30.44 65.2095 31.52ZM79.8123 34.82C80.1457 34.82 80.4657 34.7867 80.7723 34.72C81.079 34.6533 81.3857 34.5733 81.6923 34.48V36.7C81.3723 36.8333 80.9723 36.9467 80.4923 37.04C80.0257 37.1467 79.5123 37.2 78.9523 37.2C78.299 37.2 77.7123 37.0933 77.1923 36.88C76.6857 36.6667 76.279 36.3 75.9723 35.78C75.679 35.2467 75.5323 34.5133 75.5323 33.58V28.32H74.1123V27.06L75.7523 26.06L76.6123 23.76H78.5123V26.08H81.5723V28.32H78.5123V33.58C78.5123 33.9933 78.6323 34.3067 78.8723 34.52C79.1123 34.72 79.4257 34.82 79.8123 34.82ZM88.3642 25.86C89.8309 25.86 90.9509 26.18 91.7242 26.82C92.5109 27.4467 92.9042 28.4133 92.9042 29.72V37H90.8242L90.2442 35.52H90.1642C89.6976 36.1067 89.2042 36.5333 88.6842 36.8C88.1642 37.0667 87.4509 37.2 86.5442 37.2C85.5709 37.2 84.7642 36.92 84.1242 36.36C83.4842 35.7867 83.1642 34.9133 83.1642 33.74C83.1642 32.58 83.5709 31.7267 84.3842 31.18C85.1976 30.62 86.4176 30.3133 88.0442 30.26L89.9442 30.2V29.72C89.9442 29.1467 89.7909 28.7267 89.4842 28.46C89.1909 28.1933 88.7776 28.06 88.2442 28.06C87.7109 28.06 87.1909 28.14 86.6842 28.3C86.1776 28.4467 85.6709 28.6333 85.1642 28.86L84.1842 26.84C84.7709 26.5333 85.4176 26.2933 86.1242 26.12C86.8442 25.9467 87.5909 25.86 88.3642 25.86ZM88.7842 31.98C87.8242 32.0067 87.1576 32.18 86.7842 32.5C86.4109 32.82 86.2242 33.24 86.2242 33.76C86.2242 34.2133 86.3576 34.54 86.6242 34.74C86.8909 34.9267 87.2376 35.02 87.6642 35.02C88.3042 35.02 88.8442 34.8333 89.2842 34.46C89.7242 34.0733 89.9442 33.5333 89.9442 32.84V31.94L88.7842 31.98Z" fill="#282727"/>
</svg>
