<svg width="422" height="324" viewBox="0 0 422 324" fill="none" xmlns="http://www.w3.org/2000/svg">
<rect y="65.686" width="182.417" height="230.702" fill="#F4F1F1"/>
<rect x="8.14355" y="93.7227" width="139.256" height="16.822" fill="#69D6EE"/>
<rect y="65.686" width="182.417" height="16.822" fill="#567DAB"/>
<rect x="8.95801" y="116.953" width="155.543" height="16.822" fill="#69D6EE"/>
<rect x="8.95801" y="142.587" width="155.543" height="16.822" fill="#69D6EE"/>
<rect x="91.2085" y="173.027" width="77.3643" height="88.1155" fill="#D6D1D1"/>
<rect x="8.95801" y="181.037" width="72.4782" height="33.6441" fill="#D6D1D1"/>
<rect x="8.95801" y="227.498" width="72.4782" height="33.6441" fill="#D6D1D1"/>
<rect width="182.049" height="231.182" transform="matrix(0.937717 0.3474 -0.357575 0.933885 250.423 44.8589)" fill="#F4F1F1"/>
<rect width="138.975" height="16.857" transform="matrix(0.937717 0.3474 -0.357575 0.933885 247.998 73.9199)" fill="#69D6EE"/>
<rect width="182.049" height="16.857" transform="matrix(0.937717 0.3474 -0.357575 0.933885 250.423 44.8589)" fill="#567DAB"/>
<rect width="155.229" height="16.857" transform="matrix(0.937717 0.3474 -0.357575 0.933885 240.437 95.9419)" fill="#69D6EE"/>
<rect width="155.229" height="16.857" transform="matrix(0.937717 0.3474 -0.357575 0.933885 231.251 119.93)" fill="#69D6EE"/>
<rect width="77.2084" height="88.2987" transform="matrix(0.937717 0.3474 -0.357575 0.933885 297.316 176.933)" fill="#D6D1D1"/>
<rect width="72.332" height="33.714" transform="matrix(0.937717 0.3474 -0.357575 0.933885 217.474 155.913)" fill="#D6D1D1"/>
<rect width="72.332" height="33.714" transform="matrix(0.937717 0.3474 -0.357575 0.933885 200.826 199.393)" fill="#D6D1D1"/>
<rect width="182.085" height="231.135" transform="matrix(0.94405 -0.329803 0.339599 0.94057 69.2207 60.0522)" fill="#F4F1F1"/>
<rect width="139.003" height="16.8536" transform="matrix(0.94405 -0.329803 0.339599 0.94057 86.4338 83.7913)" fill="#69D6EE"/>
<rect width="182.085" height="16.8536" transform="matrix(0.94405 -0.329803 0.339599 0.94057 69.2207 60.0522)" fill="#567DAB"/>
<rect width="155.26" height="16.8536" transform="matrix(0.94405 -0.329803 0.339599 0.94057 95.1052 105.414)" fill="#69D6EE"/>
<rect width="155.26" height="16.8536" transform="matrix(0.94405 -0.329803 0.339599 0.94057 103.826 129.569)" fill="#69D6EE"/>
<rect width="77.2237" height="88.2807" transform="matrix(0.94405 -0.329803 0.339599 0.94057 191.691 131.177)" fill="#D6D1D1"/>
<rect width="72.3464" height="33.7072" transform="matrix(0.94405 -0.329803 0.339599 0.94057 116.909 165.802)" fill="#D6D1D1"/>
<rect width="72.3464" height="33.7072" transform="matrix(0.94405 -0.329803 0.339599 0.94057 132.716 209.584)" fill="#D6D1D1"/>
</svg>
